{
    "asset" : {
        "generator" : "Khronos glTF Blender I/O v1.6.16",
        "version" : "2.0"
    },
    "scene" : 0,
    "scenes" : [
        {
            "name" : "Scene",
            "nodes" : [
                0,
                1,
                2,
                3,
                4,
                5
            ]
        }
    ],
    "nodes" : [
        {
            "mesh" : 0,
            "name" : "Salon_Meuble_NFT Portrait Verre",
            "translation" : [
                -0.20342111587524414,
                0.6780828833580017,
                0.0571037195622921
            ]
        },
        {
            "mesh" : 1,
            "name" : "Salon_TableBasse.001",
            "translation" : [
                0.42559659481048584,
                0.5093472003936768,
                -0.7346374988555908
            ]
        },
        {
            "mesh" : 2,
            "name" : "UC Etage.001",
            "translation" : [
                -1.2595409154891968,
                1.978068232536316,
                1.1541637182235718
            ]
        },
        {
            "mesh" : 3,
            "name" : "Escalier_Vitre",
            "rotation" : [
                0.7071068286895752,
                0,
                0,
                0.7071068286895752
            ],
            "translation" : [
                2.1307973861694336,
                0.24979420006275177,
                -3.3571975231170654
            ]
        },
        {
            "mesh" : 4,
            "name" : "Hublot_Verre",
            "rotation" : [
                1,
                0,
                0,
                -1.6292068494294654e-07
            ],
            "scale" : [
                1.6065376996994019,
                1.6065376996994019,
                1.6065376996994019
            ],
            "translation" : [
                -1.4268206357955933,
                2.8593363761901855,
                -0.8461585640907288
            ]
        },
        {
            "mesh" : 5,
            "name" : "Rambarde_Verre",
            "translation" : [
                0.49228018522262573,
                1.9780683517456055,
                -0.3447157144546509
            ]
        }
    ],
    "materials" : [
        {
            "alphaMode" : "BLEND",
            "doubleSided" : true,
            "name" : "M_Verre",
            "pbrMetallicRoughness" : {
                "baseColorFactor" : [
                    0.020288564264774323,
                    0.020288558676838875,
                    0.020288560539484024,
                    0.3181818127632141
                ],
                "metallicFactor" : 0,
                "roughnessFactor" : 0
            }
        }
    ],
    "meshes" : [
        {
            "name" : "Cube.155",
            "primitives" : [
                {
                    "attributes" : {
                        "POSITION" : 0,
                        "NORMAL" : 1,
                        "TEXCOORD_0" : 2
                    },
                    "indices" : 3,
                    "material" : 0
                }
            ]
        },
        {
            "name" : "m_Salon_TableBasse.001",
            "primitives" : [
                {
                    "attributes" : {
                        "POSITION" : 4,
                        "NORMAL" : 5,
                        "TEXCOORD_0" : 6
                    },
                    "indices" : 7,
                    "material" : 0
                }
            ]
        },
        {
            "name" : "Cube.004",
            "primitives" : [
                {
                    "attributes" : {
                        "POSITION" : 8,
                        "NORMAL" : 9,
                        "TEXCOORD_0" : 10
                    },
                    "indices" : 11,
                    "material" : 0
                }
            ]
        },
        {
            "name" : "Plane.002",
            "primitives" : [
                {
                    "attributes" : {
                        "POSITION" : 12,
                        "NORMAL" : 13,
                        "TEXCOORD_0" : 14
                    },
                    "indices" : 15,
                    "material" : 0
                }
            ]
        },
        {
            "name" : "Cube.003",
            "primitives" : [
                {
                    "attributes" : {
                        "POSITION" : 16,
                        "NORMAL" : 17,
                        "TEXCOORD_0" : 18
                    },
                    "indices" : 19,
                    "material" : 0
                }
            ]
        },
        {
            "name" : "Cube.023",
            "primitives" : [
                {
                    "attributes" : {
                        "POSITION" : 20,
                        "NORMAL" : 21,
                        "TEXCOORD_0" : 22
                    },
                    "indices" : 23,
                    "material" : 0
                }
            ]
        }
    ],
    "accessors" : [
        {
            "bufferView" : 0,
            "componentType" : 5126,
            "count" : 40,
            "max" : [
                0.08208954334259033,
                0.16417911648750305,
                0.08208958804607391
            ],
            "min" : [
                -0.08208954334259033,
                7.450580596923828e-09,
                -0.08208958804607391
            ],
            "type" : "VEC3"
        },
        {
            "bufferView" : 1,
            "componentType" : 5126,
            "count" : 40,
            "type" : "VEC3"
        },
        {
            "bufferView" : 2,
            "componentType" : 5126,
            "count" : 40,
            "type" : "VEC2"
        },
        {
            "bufferView" : 3,
            "componentType" : 5123,
            "count" : 60,
            "type" : "SCALAR"
        },
        {
            "bufferView" : 4,
            "componentType" : 5126,
            "count" : 24,
            "max" : [
                0.289353609085083,
                -0.021818572655320168,
                0.30137118697166443
            ],
            "min" : [
                -0.31338533759117126,
                -0.03183285892009735,
                -0.30136772990226746
            ],
            "type" : "VEC3"
        },
        {
            "bufferView" : 5,
            "componentType" : 5126,
            "count" : 24,
            "type" : "VEC3"
        },
        {
            "bufferView" : 6,
            "componentType" : 5126,
            "count" : 24,
            "type" : "VEC2"
        },
        {
            "bufferView" : 7,
            "componentType" : 5123,
            "count" : 36,
            "type" : "SCALAR"
        },
        {
            "bufferView" : 8,
            "componentType" : 5126,
            "count" : 27,
            "max" : [
                0.9510626196861267,
                1.7408994436264038,
                -2.9802322387695312e-08
            ],
            "min" : [
                0.02891772985458374,
                0.27902913093566895,
                -0.8965282440185547
            ],
            "type" : "VEC3"
        },
        {
            "bufferView" : 9,
            "componentType" : 5126,
            "count" : 27,
            "type" : "VEC3"
        },
        {
            "bufferView" : 10,
            "componentType" : 5126,
            "count" : 27,
            "type" : "VEC2"
        },
        {
            "bufferView" : 11,
            "componentType" : 5123,
            "count" : 45,
            "type" : "SCALAR"
        },
        {
            "bufferView" : 12,
            "componentType" : 5126,
            "count" : 50,
            "max" : [
                0.19925808906555176,
                -0.011308137327432632,
                -0.10443170368671417
            ],
            "min" : [
                -3.3240981101989746,
                -0.03961900994181633,
                -2.109947681427002
            ],
            "type" : "VEC3"
        },
        {
            "bufferView" : 13,
            "componentType" : 5126,
            "count" : 50,
            "type" : "VEC3"
        },
        {
            "bufferView" : 14,
            "componentType" : 5126,
            "count" : 50,
            "type" : "VEC2"
        },
        {
            "bufferView" : 15,
            "componentType" : 5123,
            "count" : 84,
            "type" : "SCALAR"
        },
        {
            "bufferView" : 16,
            "componentType" : 5126,
            "count" : 72,
            "max" : [
                0.00011849403381347656,
                0.2057802677154541,
                0.20577985048294067
            ],
            "min" : [
                -0.00011867284774780273,
                -0.20578062534332275,
                -0.20577991008758545
            ],
            "type" : "VEC3"
        },
        {
            "bufferView" : 17,
            "componentType" : 5126,
            "count" : 72,
            "type" : "VEC3"
        },
        {
            "bufferView" : 18,
            "componentType" : 5126,
            "count" : 72,
            "type" : "VEC2"
        },
        {
            "bufferView" : 19,
            "componentType" : 5123,
            "count" : 72,
            "type" : "SCALAR"
        },
        {
            "bufferView" : 20,
            "componentType" : 5126,
            "count" : 40,
            "max" : [
                2.720905303955078,
                0.36755305528640747,
                -0.000980079174041748
            ],
            "min" : [
                0.018572211265563965,
                -0.05408966541290283,
                -2.2371411323547363
            ],
            "type" : "VEC3"
        },
        {
            "bufferView" : 21,
            "componentType" : 5126,
            "count" : 40,
            "type" : "VEC3"
        },
        {
            "bufferView" : 22,
            "componentType" : 5126,
            "count" : 40,
            "type" : "VEC2"
        },
        {
            "bufferView" : 23,
            "componentType" : 5123,
            "count" : 60,
            "type" : "SCALAR"
        }
    ],
    "bufferViews" : [
        {
            "buffer" : 0,
            "byteLength" : 480,
            "byteOffset" : 0
        },
        {
            "buffer" : 0,
            "byteLength" : 480,
            "byteOffset" : 480
        },
        {
            "buffer" : 0,
            "byteLength" : 320,
            "byteOffset" : 960
        },
        {
            "buffer" : 0,
            "byteLength" : 120,
            "byteOffset" : 1280
        },
        {
            "buffer" : 0,
            "byteLength" : 288,
            "byteOffset" : 1400
        },
        {
            "buffer" : 0,
            "byteLength" : 288,
            "byteOffset" : 1688
        },
        {
            "buffer" : 0,
            "byteLength" : 192,
            "byteOffset" : 1976
        },
        {
            "buffer" : 0,
            "byteLength" : 72,
            "byteOffset" : 2168
        },
        {
            "buffer" : 0,
            "byteLength" : 324,
            "byteOffset" : 2240
        },
        {
            "buffer" : 0,
            "byteLength" : 324,
            "byteOffset" : 2564
        },
        {
            "buffer" : 0,
            "byteLength" : 216,
            "byteOffset" : 2888
        },
        {
            "buffer" : 0,
            "byteLength" : 90,
            "byteOffset" : 3104
        },
        {
            "buffer" : 0,
            "byteLength" : 600,
            "byteOffset" : 3196
        },
        {
            "buffer" : 0,
            "byteLength" : 600,
            "byteOffset" : 3796
        },
        {
            "buffer" : 0,
            "byteLength" : 400,
            "byteOffset" : 4396
        },
        {
            "buffer" : 0,
            "byteLength" : 168,
            "byteOffset" : 4796
        },
        {
            "buffer" : 0,
            "byteLength" : 864,
            "byteOffset" : 4964
        },
        {
            "buffer" : 0,
            "byteLength" : 864,
            "byteOffset" : 5828
        },
        {
            "buffer" : 0,
            "byteLength" : 576,
            "byteOffset" : 6692
        },
        {
            "buffer" : 0,
            "byteLength" : 144,
            "byteOffset" : 7268
        },
        {
            "buffer" : 0,
            "byteLength" : 480,
            "byteOffset" : 7412
        },
        {
            "buffer" : 0,
            "byteLength" : 480,
            "byteOffset" : 7892
        },
        {
            "buffer" : 0,
            "byteLength" : 320,
            "byteOffset" : 8372
        },
        {
            "buffer" : 0,
            "byteLength" : 120,
            "byteOffset" : 8692
        }
    ],
    "buffers" : [
        {
            "byteLength" : 8812,
            "uri" : "data:application/octet-stream;base64,"
        }
    ]
}
